<?xml version="1.0" encoding="UTF-8"?>
<svg width="21px" height="20px" viewBox="0 0 21 20" version="1.1" xmlns="http://www.w3.org/2000/svg" xmlns:xlink="http://www.w3.org/1999/xlink">
    <!-- Generator: Sketch 52.1 (67048) - http://www.bohemiancoding.com/sketch -->
    <title>love</title>
    <desc>Created with Sketch.</desc>
    <g id="Expertise" stroke="none" stroke-width="1" fill="none" fill-rule="evenodd">
        <g transform="translate(-60.000000, -26.000000)" fill="#FF5C36" id="Carousel">
            <g>
                <g id="Slider-button">
                    <g id="Group-5" transform="translate(60.000000, 24.000000)">
                        <path d="M20.253418,8.41162109 C20.3388672,9.85205078 19.9848633,12.0249023 17.8242187,14.2709961 C14.1499023,18.0673828 11.2324219,21.1313477 11.2080078,21.1557617 L10.5,21.9003906 L9.79199219,21.1557617 C9.76757812,21.1313477 6.85009766,18.0673828 3.17578125,14.2709961 C1.01513672,12.0249023 0.661132812,9.85205078 0.746582031,8.41162109 C0.844238281,6.72705078 1.60107422,5.15234375 2.77294922,4.20019531 C3.78613281,3.38232422 5.11669922,2.90625 6.44726562,2.90625 C8.46142578,2.90625 9.74316406,3.77294922 10.5,4.82275391 C11.2568359,3.77294922 12.5385742,2.90625 14.5527344,2.90625 C15.8833008,2.90625 17.2138672,3.38232422 18.2270508,4.20019531 C19.3989258,5.15234375 20.1557617,6.72705078 20.253418,8.41162109 Z M16.4204102,12.9160156 C18.0927734,11.1826172 18.3735352,9.57128906 18.300293,8.52148438 C18.2270508,7.17871094 17.5800781,6.18994141 16.9941406,5.72607422 C16.3349609,5.17675781 15.4194336,4.859375 14.5527344,4.859375 C11.7573242,4.859375 11.5253906,7.32519531 11.4765625,7.60595703 C11.4155273,7.92333984 11.1958008,8.375 10.5366211,8.375 C9.85302734,8.375 9.57226562,7.95996094 9.5234375,7.59375 C9.48681641,7.33740234 9.24267578,4.859375 6.44726562,4.859375 C5.58056641,4.859375 4.66503906,5.17675781 4.00585937,5.72607422 C3.41992187,6.18994141 2.77294922,7.17871094 2.69970703,8.52148438 C2.62646484,9.57128906 2.90722656,11.1826172 4.57958984,12.9160156 C7.1796875,15.6137695 9.41357422,17.9331055 10.5,19.0683594 C11.5864258,17.9331055 13.8203125,15.6137695 16.4204102,12.9160156 Z" id="love"></path>
                    </g>
                </g>
            </g>
        </g>
    </g>
</svg>