<?xml version="1.0" encoding="UTF-8"?>
<svg width="21px" height="21px" viewBox="0 0 21 21" version="1.1" xmlns="http://www.w3.org/2000/svg" xmlns:xlink="http://www.w3.org/1999/xlink">
    <!-- Generator: Sketch 52.1 (67048) - http://www.bohemiancoding.com/sketch -->
    <title>globe</title>
    <desc>Created with Sketch.</desc>
    <g id="Expertise" stroke="none" stroke-width="1" fill="none" fill-rule="evenodd">
        <g transform="translate(-391.000000, -26.000000)" fill="#FF5C36" id="Carousel">
            <g>
                <g id="Slider-active" transform="translate(369.000000, 0.000000)">
                    <path d="M32.5,26 C38.293457,26 43,30.706543 43,36.5 C43,42.293457 38.293457,47 32.5,47 C26.706543,47 22,42.293457 22,36.5 C22,30.706543 26.706543,26 32.5,26 Z M26.0092773,30.0092773 C24.296875,31.7216797 23.4047852,33.9262695 23.3330078,36.171875 L26.265625,36.171875 C26.3374023,33.762207 26.921875,31.3935547 28.0908203,29.5375977 C28.5419922,28.840332 29.0546875,28.2456055 29.5981445,27.8046875 C28.2856445,28.2250977 27.034668,28.953125 26.0092773,30.0092773 Z M26.0092773,42.9907227 C27.034668,44.046875 28.2856445,44.7749023 29.5981445,45.2158203 C29.0546875,44.7543945 28.5419922,44.1904297 28.0908203,43.4624023 C26.921875,41.637207 26.3374023,39.237793 26.265625,36.828125 L23.3330078,36.828125 C23.4047852,39.0737305 24.296875,41.2783203 26.0092773,42.9907227 Z M32.171875,45.6669922 L32.171875,36.828125 L26.921875,36.828125 C26.9731445,39.1044922 27.5576172,41.3706055 28.6342773,43.1137695 C29.6186523,44.6313477 30.859375,45.5234375 32.171875,45.6669922 Z M32.171875,36.171875 L32.171875,27.3330078 C30.859375,27.4765625 29.6186523,28.3686523 28.6342773,29.8862305 C27.5576172,31.6293945 26.9731445,33.8955078 26.921875,36.171875 L32.171875,36.171875 Z M38.9907227,30.0092773 C37.965332,28.953125 36.7143555,28.2250977 35.4018555,27.8046875 C35.9453125,28.2456055 36.4580078,28.840332 36.9091797,29.5375977 C38.078125,31.3935547 38.6625977,33.762207 38.734375,36.171875 L41.6669922,36.171875 C41.5952148,33.9262695 40.703125,31.7216797 38.9907227,30.0092773 Z M32.828125,27.3330078 L32.828125,36.171875 L38.078125,36.171875 C38.0268555,33.8955078 37.4423828,31.6293945 36.3452148,29.8862305 C35.3813477,28.3686523 34.140625,27.4765625 32.828125,27.3330078 Z M32.828125,45.6669922 C34.140625,45.5234375 35.3813477,44.6518555 36.3452148,43.1137695 C37.4423828,41.3706055 38.0268555,39.1044922 38.078125,36.828125 L32.828125,36.828125 L32.828125,45.6669922 Z M38.9907227,42.9907227 C40.703125,41.2783203 41.5952148,39.0737305 41.6669922,36.828125 L38.734375,36.828125 C38.6625977,39.237793 38.078125,41.637207 36.9091797,43.4624023 C36.4580078,44.1904297 35.9453125,44.7543945 35.4018555,45.1953125 C36.7143555,44.7749023 37.965332,44.046875 38.9907227,42.9907227 Z" id="globe"></path>
                </g>
            </g>
        </g>
    </g>
</svg>