<?xml version="1.0" encoding="UTF-8"?>
<svg width="33px" height="25px" viewBox="0 0 33 25" version="1.1" xmlns="http://www.w3.org/2000/svg" xmlns:xlink="http://www.w3.org/1999/xlink">
    <!-- Generator: Sketch 52.1 (67048) - http://www.bohemiancoding.com/sketch -->
    <title>Engineering icon</title>
    <desc>Created with Sketch.</desc>
    <g id="Expertise" stroke="none" stroke-width="1" fill="none" fill-rule="evenodd">
        <g transform="translate(-1069.000000, -22.000000)" id="Carousel">
            <g>
                <g id="Slider-button-4" transform="translate(1050.000000, 0.000000)">
                    <g id="Engineering-icon" transform="translate(19.000000, 22.641700)">
                        <polyline id="Stroke-5" stroke="#EA5E3F" stroke-width="1.6" points="32.0542 13.0441 28.6472 9.4961 23.8712 10.6731 22.5032 15.3981 25.9102 18.9441"></polyline>
                        <path d="M1.9799,19.0158 C0.4069,17.4428 0.4069,14.8698 1.9799,13.2958 L13.9379,1.3378 C15.5109,-0.2352 18.0839,-0.2352 19.6569,1.3378 C21.2299,2.9118 21.2299,5.4848 19.6569,7.0578 L7.6989,19.0158 C6.1259,20.5888 3.5529,20.5888 1.9799,19.0158 Z" id="Stroke-7" stroke="#EA5E3F" stroke-width="1.6"></path>
                        <path d="M17.7324,3.9718 C17.7324,4.3628 17.4154,4.6798 17.0244,4.6798 C16.6324,4.6798 16.3154,4.3628 16.3154,3.9718 C16.3154,3.5798 16.6324,3.2628 17.0244,3.2628 C17.4154,3.2628 17.7324,3.5798 17.7324,3.9718" id="Fill-9" fill="#FA4616"></path>
                        <path d="M5.5971,16.1066 C5.5971,16.4986 5.2801,16.8156 4.8891,16.8156 C4.4971,16.8156 4.1801,16.4986 4.1801,16.1066 C4.1801,15.7156 4.4971,15.3986 4.8891,15.3986 C5.2801,15.3986 5.5971,15.7156 5.5971,16.1066" id="Fill-11" fill="#FA4616"></path>
                        <path d="M9.7465,11.9572 C9.7465,12.3492 9.4295,12.6662 9.0385,12.6662 C8.6465,12.6662 8.3295,12.3492 8.3295,11.9572 C8.3295,11.5652 8.6465,11.2482 9.0385,11.2482 C9.4295,11.2482 9.7465,11.5652 9.7465,11.9572" id="Fill-13" fill="#FA4616"></path>
                        <path d="M13.7465,7.9572 C13.7465,8.3492 13.4295,8.6662 13.0385,8.6662 C12.6465,8.6662 12.3295,8.3492 12.3295,7.9572 C12.3295,7.5652 12.6465,7.2482 13.0385,7.2482 C13.4295,7.2482 13.7465,7.5652 13.7465,7.9572" id="Fill-15" fill="#FA4616"></path>
                        <polyline id="Stroke-17" stroke="#EA5E3F" stroke-width="1.6" points="9.747 16.6769 9.747 23.1999 0.816 23.1999 0.816 15.8159"></polyline>
                        <g id="Group-3" transform="translate(19.000000, 6.000000)">
                            <path d="M0.8637,0.3869 L5.0107,4.5339" id="Fill-1" fill="#FEFEFE"></path>
                            <path d="M0.8637,0.3869 L5.0107,4.5339" id="Stroke-2" stroke="#EA5E3F" stroke-width="1.6"></path>
                        </g>
                        <polygon id="Fill-4" points="23.8716 10.6728 22.5036 15.3978 25.9096 18.9448 32.0546 13.0438 28.6466 9.4968"></polygon>
                    </g>
                </g>
            </g>
        </g>
    </g>
</svg>